<?xml version="1.0" standalone="no"?>
<!DOCTYPE svg PUBLIC "-//W3C//DTD SVG 20010904//EN"
 "http://www.w3.org/TR/2001/REC-SVG-20010904/DTD/svg10.dtd">
<svg version="1.0" xmlns="http://www.w3.org/2000/svg"
 width="128.000000pt" height="128.000000pt" viewBox="0 0 128.000000 128.000000"
 preserveAspectRatio="xMidYMid meet">

<g transform="translate(0.000000,128.000000) scale(0.100000,-0.100000)"
fill="#000000" stroke="none">
<path d="M502 1255 c-179 -40 -343 -172 -427 -340 -168 -340 6 -748 375 -876
94 -33 286 -33 380 0 193 67 344 218 411 411 33 94 33 286 0 380 -67 194 -221
347 -411 410 -84 29 -239 36 -328 15z m418 -231 c0 -14 -7 -56 -16 -95 -16
-73 -37 -90 -48 -41 -4 15 -12 44 -17 65 l-10 37 -134 0 -135 0 0 -160 0 -160
104 0 103 0 13 45 c9 33 18 45 31 45 18 0 19 -10 19 -125 0 -114 -2 -125 -18
-125 -13 0 -23 14 -33 48 l-15 47 -102 3 -102 3 2 -163 3 -162 48 -15 c26 -8
47 -20 47 -28 0 -10 -33 -13 -155 -13 -125 0 -155 3 -155 14 0 7 20 19 45 26
l45 13 0 357 0 357 -45 13 c-25 7 -45 19 -45 26 0 12 50 14 285 14 l285 0 0
-26z"/>
</g>
</svg>
